# xmcd
#
# Track frame offsets:
#	150
#	13245
#	25663
#	37734
#	50915
#	63673
#	75821
#	89462
#	103514
#	131440
#	156256
#	178997
#	191436
#	215192
#	234348
#	254221
#
# Disc length: 3566
#
# Revision: 1
# Processed by: cddbd v1.5.1PL0 Copyright (c) Steve Scherf et al.
# Submitted via: CDex 1.51
# Normalized: r0:TDELIM( - )
#
DISCID=dc0dec10
DTITLE=Various Artist - Jazz and Blues Club 3
DYEAR=1900
DGENRE=Jazz
TTITLE0=Elmore James - Dust My Broom
TTITLE1=John Lee Hooker - Crawling King Snake Blues
TTITLE2=Jimmy Reed - Bright Lights, Big City
TTITLE3=Junior Parker - Feelin' Good
TTITLE4=Rufus Thomas - Bear Cat
TTITLE5=Buster Brown - Fannie Mae
TTITLE6=T-Bone Walker - I'm Waiting for your Call
TTITLE7=Otis Rush - I Can't Quit you Baby
TTITLE8=Champion Jack Dupree - Hard Feeling
TTITLE9=Freddie King - Going Down
TTITLE10=BB King - The Thrill is Gone
TTITLE11=Earl Hooker - Blue Guitar
TTITLE12=Muddy Waters - Nine Below Zero
TTITLE13=Mississippi Fred McDowell - Someday
TTITLE14=Albert Collins - Too Many Dirty Dishes
TTITLE15=Buddy Guy - This is the End
EXTD=
EXTT0=
EXTT1=
EXTT2=
EXTT3=
EXTT4=
EXTT5=
EXTT6=
EXTT7=
EXTT8=
EXTT9=
EXTT10=
EXTT11=
EXTT12=
EXTT13=
EXTT14=
EXTT15=
PLAYORDER=
